<svg width="175" height="81" viewBox="0 0 175 81" fill="none" xmlns="http://www.w3.org/2000/svg">
<path fill-rule="evenodd" clip-rule="evenodd" d="M149.722 50.8646C147.954 50.8646 146.475 52.1859 146.475 53.8672C146.475 55.5485 147.954 56.9094 149.722 56.9094C150.13 56.9285 150.539 56.8645 150.922 56.7212C151.305 56.5779 151.656 56.3584 151.952 56.0759C152.248 55.7933 152.484 55.4537 152.645 55.0774C152.806 54.7012 152.889 54.2962 152.889 53.887C152.889 53.4778 152.806 53.0728 152.645 52.6965C152.484 52.3203 152.248 51.9807 151.952 51.6981C151.656 51.4156 151.305 51.1961 150.922 51.0528C150.539 50.9095 150.13 50.8455 149.722 50.8646ZM5.26191 80.534H0V52.2129H17.3051V56.9H5.26191V64.2561H14.7981V68.9433H5.26191V80.534ZM18.5898 70.8455C18.5898 64.8008 23.1118 60.8965 28.5785 60.8965C33.9891 60.8965 38.5672 64.8041 38.5672 70.8455C38.5672 76.887 34.0452 80.8738 28.5785 80.8738C23.1118 80.8738 18.5898 76.8903 18.5898 70.8455ZM23.5611 70.8455C23.5611 73.967 25.8237 75.9819 28.5785 75.9819C31.3466 75.9819 33.5927 73.967 33.5927 70.8455C33.5927 67.8099 31.3333 65.8281 28.5785 65.8281C25.8237 65.8281 23.5611 67.8033 23.5611 70.8455ZM65.3794 53.9902H60.4049V61.3067H56.9102V65.3365H60.4049V80.5045H65.3794V65.3365H69.4488V61.3067H65.3794V53.9902ZM89.5052 64.5299C91.3154 61.349 94.0272 60.8965 95.55 60.8965C100.194 60.8965 102.949 63.9089 102.966 69.5243V80.5204H97.991V70.0792C97.991 67.3244 96.4121 65.8049 94.3575 65.8049C92.1015 65.8049 90.4499 67.3673 90.4499 70.284V80.5237H85.4358V69.9537C85.3961 67.2814 83.8833 65.8016 81.9014 65.8016C79.8535 65.8016 77.8716 66.9775 77.8716 70.2807V80.5204H72.8574V61.3226H77.8716V64.16C78.9418 61.8181 81.5711 60.9526 83.3812 60.9526C86.4234 61.1178 88.4383 62.188 89.5052 64.5299ZM122.101 63.6909C120.703 61.5538 117.866 60.8965 116.155 60.8965C111.098 60.8965 106.371 64.7182 106.371 70.8852C106.371 77.0521 111.098 80.8738 116.155 80.8738C118.044 80.8738 120.882 80.0117 122.101 78.0365V80.5039H127.115V61.3061H122.101V63.6909ZM116.839 76.0645C114.087 76.0645 111.554 73.967 111.554 70.8852C111.554 67.8033 114.104 65.7058 116.839 65.7058C119.481 65.7058 122.101 67.5556 122.101 70.8852C122.101 74.2147 119.541 76.0645 116.839 76.0645ZM134.393 53.9902H139.364V61.3067H143.434V65.3365H139.364V80.5045H134.393V65.3365H130.898V61.3067H134.393V53.9902ZM147.213 61.3066H152.187V80.5045H147.213V61.3066ZM170.974 74.1718C170.504 74.7816 169.9 75.2737 169.207 75.6091C168.514 75.9446 167.753 76.114 166.984 76.1041C164.189 76.1041 161.6 73.967 161.6 70.8455C161.6 67.7241 164.189 65.7455 166.984 65.7455C167.75 65.7276 168.511 65.8894 169.203 66.2181C169.896 66.5468 170.503 67.0331 170.974 67.6382L174.961 64.6356C173.151 62.2541 170.191 60.8965 166.984 60.8965C161.477 60.8965 156.625 64.8008 156.625 70.8455C156.625 76.8903 161.477 80.9135 166.984 80.9135C170.234 80.9135 173.194 79.5163 175 77.1347L170.974 74.1718ZM42.114 80.5045V61.3066H53.9987V63.1663C53.9987 64.5701 52.9549 65.7064 51.67 65.7064H47.1282V80.5045H42.114Z" fill="#120533"/>
<path fill-rule="evenodd" clip-rule="evenodd" d="M87.5002 0H97.8489H108.198V10.3454H97.8489H87.5002H77.1514V20.6942V21.3581V30.9834V31.0429V41.3288H66.8027V31.0429V30.9834V21.3581V20.6942V10.3454V0H77.1514H87.5002ZM97.8479 30.9826H87.5586V20.6934H108.197V31.346C108.196 33.9937 107.143 36.5327 105.271 38.4046C103.398 40.2765 100.859 41.328 98.2112 41.328H97.8479V30.9826Z" fill="#617BFF"/>
</svg>
